<?xml version="1.0" encoding="UTF-8" standalone="no"?>
<!DOCTYPE svg PUBLIC "-//W3C//DTD SVG 1.1//EN"
 "http://www.w3.org/Graphics/SVG/1.1/DTD/svg11.dtd">
<!-- Generated by graphviz version 2.50.0 (0)
 -->
<!-- Pages: 1 -->
<svg width="203pt" height="425pt"
 viewBox="0.00 0.00 202.50 425.20" xmlns="http://www.w3.org/2000/svg" xmlns:xlink="http://www.w3.org/1999/xlink">
<g id="graph0" class="graph" transform="scale(1 1) rotate(0) translate(4 421.2)">
<polygon fill="white" stroke="transparent" points="-4,4 -4,-421.2 198.5,-421.2 198.5,4 -4,4"/>
<!-- height -->
<g id="node1" class="node">
<title>height</title>
<polygon fill="lightgray" stroke="black" points="40.5,-115.71 2.5,-115.71 2.5,-97.71 40.5,-97.71 40.5,-115.71"/>
<text text-anchor="middle" x="21.5" y="-104.51" font-family="Times New Roman,serif" font-size="9.00">height</text>
</g>
<!-- score -->
<g id="node5" class="node">
<title>score</title>
<ellipse fill="lightblue" stroke="black" cx="79.5" cy="-24.75" rx="25" ry="25"/>
<text text-anchor="middle" x="79.5" y="-22.55" font-family="Times New Roman,serif" font-size="9.00">score</text>
</g>
<!-- height&#45;&gt;score -->
<g id="edge1" class="edge">
<title>height&#45;&gt;score</title>
<path fill="none" stroke="green" stroke-width="0.17" d="M27.49,-97.45C34.96,-87.15 48.12,-69.01 59.34,-53.55"/>
<polygon fill="green" stroke="green" stroke-width="0.17" points="62.28,-55.45 65.32,-45.3 56.61,-51.34 62.28,-55.45"/>
</g>
<!-- bumpiness -->
<g id="node2" class="node">
<title>bumpiness</title>
<polygon fill="lightgray" stroke="black" points="114,-417.2 59,-417.2 59,-399.2 114,-399.2 114,-417.2"/>
<text text-anchor="middle" x="86.5" y="-406" font-family="Times New Roman,serif" font-size="9.00">bumpiness</text>
</g>
<!-- 427 -->
<g id="node7" class="node">
<title>427</title>
<ellipse fill="white" stroke="black" cx="86.5" cy="-341.99" rx="21.43" ry="21.43"/>
<text text-anchor="middle" x="86.5" y="-339.79" font-family="Times New Roman,serif" font-size="9.00">427</text>
</g>
<!-- bumpiness&#45;&gt;427 -->
<g id="edge8" class="edge">
<title>bumpiness&#45;&gt;427</title>
<path fill="none" stroke="green" stroke-width="0.25" d="M86.5,-399.07C86.5,-392.53 86.5,-382.9 86.5,-373.46"/>
<polygon fill="green" stroke="green" stroke-width="0.25" points="90,-373.45 86.5,-363.45 83,-373.45 90,-373.45"/>
</g>
<!-- holes -->
<g id="node3" class="node">
<title>holes</title>
<polygon fill="lightgray" stroke="black" points="35,-417.2 0,-417.2 0,-399.2 35,-399.2 35,-417.2"/>
<text text-anchor="middle" x="17.5" y="-406" font-family="Times New Roman,serif" font-size="9.00">holes</text>
</g>
<!-- 197 -->
<g id="node6" class="node">
<title>197</title>
<ellipse fill="white" stroke="black" cx="79.5" cy="-106.71" rx="21.43" ry="21.43"/>
<text text-anchor="middle" x="79.5" y="-104.51" font-family="Times New Roman,serif" font-size="9.00">197</text>
</g>
<!-- holes&#45;&gt;197 -->
<g id="edge3" class="edge">
<title>holes&#45;&gt;197</title>
<path fill="none" stroke="red" stroke-width="0.32" stroke-dasharray="1,5" d="M16.06,-398.81C10.93,-366.78 -4.3,-249.77 30.5,-163.92 35.95,-150.48 46.02,-138.04 55.61,-128.29"/>
<polygon fill="red" stroke="red" stroke-width="0.32" points="58.33,-130.54 63.11,-121.09 53.48,-125.49 58.33,-130.54"/>
</g>
<!-- holes&#45;&gt;427 -->
<g id="edge5" class="edge">
<title>holes&#45;&gt;427</title>
<path fill="none" stroke="green" stroke-width="0.16" d="M26.24,-399.07C35.61,-390.35 50.87,-376.15 63.69,-364.22"/>
<polygon fill="green" stroke="green" stroke-width="0.16" points="66.34,-366.53 71.28,-357.16 61.57,-361.41 66.34,-366.53"/>
</g>
<!-- cleared_lines -->
<g id="node4" class="node">
<title>cleared_lines</title>
<polygon fill="lightgray" stroke="black" points="194.5,-417.2 132.5,-417.2 132.5,-399.2 194.5,-399.2 194.5,-417.2"/>
<text text-anchor="middle" x="163.5" y="-406" font-family="Times New Roman,serif" font-size="9.00">cleared_lines</text>
</g>
<!-- 197&#45;&gt;score -->
<g id="edge2" class="edge">
<title>197&#45;&gt;score</title>
<path fill="none" stroke="green" stroke-width="0.32" d="M79.5,-85.12C79.5,-77.42 79.5,-68.46 79.5,-59.86"/>
<polygon fill="green" stroke="green" stroke-width="0.32" points="83,-59.67 79.5,-49.67 76,-59.67 83,-59.67"/>
</g>
<!-- 427&#45;&gt;score -->
<g id="edge7" class="edge">
<title>427&#45;&gt;score</title>
<path fill="none" stroke="red" stroke-width="0.13" d="M98.3,-324.17C105.09,-313.44 112.96,-298.94 116.5,-284.78 126.11,-246.36 134.89,-182.93 109.5,-85.5 106.8,-75.14 102.15,-64.48 97.31,-55.1"/>
<polygon fill="red" stroke="red" stroke-width="0.13" points="100.31,-53.3 92.46,-46.19 94.16,-56.64 100.31,-53.3"/>
</g>
<!-- 407 -->
<g id="node8" class="node">
<title>407</title>
<ellipse fill="white" stroke="black" cx="86.5" cy="-263.56" rx="21.43" ry="21.43"/>
<text text-anchor="middle" x="86.5" y="-261.36" font-family="Times New Roman,serif" font-size="9.00">407</text>
</g>
<!-- 427&#45;&gt;407 -->
<g id="edge6" class="edge">
<title>427&#45;&gt;407</title>
<path fill="none" stroke="green" stroke-width="0.37" d="M86.5,-320.51C86.5,-312.65 86.5,-303.51 86.5,-294.92"/>
<polygon fill="green" stroke="green" stroke-width="0.37" points="90,-294.84 86.5,-284.84 83,-294.84 90,-294.84"/>
</g>
<!-- 407&#45;&gt;197 -->
<g id="edge4" class="edge">
<title>407&#45;&gt;197</title>
<path fill="none" stroke="red" stroke-width="0.14" stroke-dasharray="1,5" d="M88.96,-242.11C90.98,-222.13 93.11,-190.88 90.5,-163.92 89.66,-155.27 88.11,-145.97 86.44,-137.47"/>
<polygon fill="red" stroke="red" stroke-width="0.14" points="89.84,-136.67 84.37,-127.61 82.99,-138.11 89.84,-136.67"/>
</g>
<!-- 446 -->
<g id="node9" class="node">
<title>446</title>
<ellipse fill="white" stroke="black" cx="60.5" cy="-185.14" rx="21.43" ry="21.43"/>
<text text-anchor="middle" x="60.5" y="-182.94" font-family="Times New Roman,serif" font-size="9.00">446</text>
</g>
<!-- 407&#45;&gt;446 -->
<g id="edge9" class="edge">
<title>407&#45;&gt;446</title>
<path fill="none" stroke="red" stroke-width="0.1" d="M79.94,-243.28C77.01,-234.68 73.51,-224.37 70.28,-214.89"/>
<polygon fill="red" stroke="red" stroke-width="0.1" points="73.59,-213.76 67.06,-205.42 66.97,-216.01 73.59,-213.76"/>
</g>
<!-- 446&#45;&gt;197 -->
<g id="edge10" class="edge">
<title>446&#45;&gt;197</title>
<path fill="none" stroke="red" stroke-width="0.21" d="M65.39,-164.46C67.44,-156.23 69.86,-146.49 72.11,-137.42"/>
<polygon fill="red" stroke="red" stroke-width="0.21" points="75.54,-138.14 74.56,-127.59 68.75,-136.45 75.54,-138.14"/>
</g>
</g>
</svg>
